<mxfile host="app.diagrams.net" modified="2024-06-27T15:21:58.366Z" agent="Mozilla/5.0 (Windows NT 10.0; Win64; x64) AppleWebKit/537.36 (KHTML, like Gecko) Chrome/126.0.0.0 Safari/537.36" etag="z-dH6bEMNZ26c_NUWo6Q" version="24.2.3" type="github">
  <diagram id="C5RBs43oDa-KdzZeNtuy" name="Page-1">
    <mxGraphModel dx="1702" dy="522" grid="1" gridSize="10" guides="1" tooltips="1" connect="1" arrows="1" fold="1" page="1" pageScale="1" pageWidth="827" pageHeight="1169" math="0" shadow="0">
      <root>
        <mxCell id="WIyWlLk6GJQsqaUBKTNV-0" />
        <mxCell id="WIyWlLk6GJQsqaUBKTNV-1" parent="WIyWlLk6GJQsqaUBKTNV-0" />
        <mxCell id="BN1mwniYuZOqEKGkC-m8-2" style="edgeStyle=orthogonalEdgeStyle;rounded=0;orthogonalLoop=1;jettySize=auto;html=1;entryX=0.5;entryY=0;entryDx=0;entryDy=0;" parent="WIyWlLk6GJQsqaUBKTNV-1" source="WIyWlLk6GJQsqaUBKTNV-3" target="BN1mwniYuZOqEKGkC-m8-0" edge="1">
          <mxGeometry relative="1" as="geometry" />
        </mxCell>
        <mxCell id="WIyWlLk6GJQsqaUBKTNV-3" value="INITIALISE FIRMWARE&amp;nbsp;&lt;br&gt;(HAL, LED,WD, CLOCK)" style="rounded=1;whiteSpace=wrap;html=1;fontSize=12;glass=0;strokeWidth=1;shadow=0;" parent="WIyWlLk6GJQsqaUBKTNV-1" vertex="1">
          <mxGeometry x="153" y="60" width="135" height="50" as="geometry" />
        </mxCell>
        <mxCell id="BN1mwniYuZOqEKGkC-m8-8" style="edgeStyle=orthogonalEdgeStyle;rounded=0;orthogonalLoop=1;jettySize=auto;html=1;entryX=0.5;entryY=0;entryDx=0;entryDy=0;" parent="WIyWlLk6GJQsqaUBKTNV-1" source="WIyWlLk6GJQsqaUBKTNV-6" target="BN1mwniYuZOqEKGkC-m8-5" edge="1">
          <mxGeometry relative="1" as="geometry" />
        </mxCell>
        <mxCell id="BN1mwniYuZOqEKGkC-m8-9" style="edgeStyle=orthogonalEdgeStyle;rounded=0;orthogonalLoop=1;jettySize=auto;html=1;exitX=1;exitY=0.5;exitDx=0;exitDy=0;entryX=0.5;entryY=0;entryDx=0;entryDy=0;" parent="WIyWlLk6GJQsqaUBKTNV-1" source="WIyWlLk6GJQsqaUBKTNV-6" target="BN1mwniYuZOqEKGkC-m8-6" edge="1">
          <mxGeometry relative="1" as="geometry" />
        </mxCell>
        <mxCell id="BN1mwniYuZOqEKGkC-m8-10" style="edgeStyle=orthogonalEdgeStyle;rounded=0;orthogonalLoop=1;jettySize=auto;html=1;entryX=0.5;entryY=0;entryDx=0;entryDy=0;" parent="WIyWlLk6GJQsqaUBKTNV-1" source="WIyWlLk6GJQsqaUBKTNV-6" target="BN1mwniYuZOqEKGkC-m8-7" edge="1">
          <mxGeometry relative="1" as="geometry" />
        </mxCell>
        <mxCell id="BN1mwniYuZOqEKGkC-m8-12" style="edgeStyle=orthogonalEdgeStyle;rounded=0;orthogonalLoop=1;jettySize=auto;html=1;entryX=0.5;entryY=0;entryDx=0;entryDy=0;" parent="WIyWlLk6GJQsqaUBKTNV-1" source="WIyWlLk6GJQsqaUBKTNV-6" target="WIyWlLk6GJQsqaUBKTNV-10" edge="1">
          <mxGeometry relative="1" as="geometry" />
        </mxCell>
        <mxCell id="WIyWlLk6GJQsqaUBKTNV-6" value="EVENT ALLOCATION" style="rhombus;whiteSpace=wrap;html=1;shadow=0;fontFamily=Helvetica;fontSize=12;align=center;strokeWidth=1;spacing=6;spacingTop=-4;" parent="WIyWlLk6GJQsqaUBKTNV-1" vertex="1">
          <mxGeometry x="170" y="270" width="100" height="80" as="geometry" />
        </mxCell>
        <mxCell id="BN1mwniYuZOqEKGkC-m8-16" style="edgeStyle=orthogonalEdgeStyle;rounded=0;orthogonalLoop=1;jettySize=auto;html=1;exitX=0.5;exitY=1;exitDx=0;exitDy=0;" parent="WIyWlLk6GJQsqaUBKTNV-1" source="WIyWlLk6GJQsqaUBKTNV-10" target="BN1mwniYuZOqEKGkC-m8-15" edge="1">
          <mxGeometry relative="1" as="geometry" />
        </mxCell>
        <mxCell id="BN1mwniYuZOqEKGkC-m8-17" style="edgeStyle=orthogonalEdgeStyle;rounded=0;orthogonalLoop=1;jettySize=auto;html=1;entryX=0.5;entryY=0;entryDx=0;entryDy=0;" parent="WIyWlLk6GJQsqaUBKTNV-1" source="WIyWlLk6GJQsqaUBKTNV-10" target="BN1mwniYuZOqEKGkC-m8-14" edge="1">
          <mxGeometry relative="1" as="geometry" />
        </mxCell>
        <mxCell id="BN1mwniYuZOqEKGkC-m8-18" style="edgeStyle=orthogonalEdgeStyle;rounded=0;orthogonalLoop=1;jettySize=auto;html=1;" parent="WIyWlLk6GJQsqaUBKTNV-1" source="WIyWlLk6GJQsqaUBKTNV-10" target="BN1mwniYuZOqEKGkC-m8-13" edge="1">
          <mxGeometry relative="1" as="geometry" />
        </mxCell>
        <mxCell id="WIyWlLk6GJQsqaUBKTNV-10" value="POD READ" style="rhombus;whiteSpace=wrap;html=1;shadow=0;fontFamily=Helvetica;fontSize=12;align=center;strokeWidth=1;spacing=6;spacingTop=-4;" parent="WIyWlLk6GJQsqaUBKTNV-1" vertex="1">
          <mxGeometry x="40" y="390" width="100" height="80" as="geometry" />
        </mxCell>
        <mxCell id="BN1mwniYuZOqEKGkC-m8-4" style="edgeStyle=orthogonalEdgeStyle;rounded=0;orthogonalLoop=1;jettySize=auto;html=1;entryX=0.5;entryY=0;entryDx=0;entryDy=0;" parent="WIyWlLk6GJQsqaUBKTNV-1" source="BN1mwniYuZOqEKGkC-m8-0" target="WIyWlLk6GJQsqaUBKTNV-6" edge="1">
          <mxGeometry relative="1" as="geometry" />
        </mxCell>
        <mxCell id="BN1mwniYuZOqEKGkC-m8-0" value="LED BLINK" style="rounded=1;whiteSpace=wrap;html=1;" parent="WIyWlLk6GJQsqaUBKTNV-1" vertex="1">
          <mxGeometry x="160.5" y="160" width="120" height="60" as="geometry" />
        </mxCell>
        <mxCell id="BN1mwniYuZOqEKGkC-m8-20" style="edgeStyle=orthogonalEdgeStyle;rounded=0;orthogonalLoop=1;jettySize=auto;html=1;entryX=0.5;entryY=0;entryDx=0;entryDy=0;" parent="WIyWlLk6GJQsqaUBKTNV-1" source="BN1mwniYuZOqEKGkC-m8-5" target="BN1mwniYuZOqEKGkC-m8-19" edge="1">
          <mxGeometry relative="1" as="geometry" />
        </mxCell>
        <mxCell id="BN1mwniYuZOqEKGkC-m8-5" value="USB READ" style="rhombus;whiteSpace=wrap;html=1;shadow=0;fontFamily=Helvetica;fontSize=12;align=center;strokeWidth=1;spacing=6;spacingTop=-4;" parent="WIyWlLk6GJQsqaUBKTNV-1" vertex="1">
          <mxGeometry x="170" y="390" width="100" height="80" as="geometry" />
        </mxCell>
        <mxCell id="BN1mwniYuZOqEKGkC-m8-6" value="IDLE READ" style="rhombus;whiteSpace=wrap;html=1;shadow=0;fontFamily=Helvetica;fontSize=12;align=center;strokeWidth=1;spacing=6;spacingTop=-4;" parent="WIyWlLk6GJQsqaUBKTNV-1" vertex="1">
          <mxGeometry x="310" y="390" width="100" height="80" as="geometry" />
        </mxCell>
        <mxCell id="ztLvwY8hkEMtlcBqOXgu-2" style="edgeStyle=orthogonalEdgeStyle;rounded=0;orthogonalLoop=1;jettySize=auto;html=1;entryX=0.5;entryY=0;entryDx=0;entryDy=0;" edge="1" parent="WIyWlLk6GJQsqaUBKTNV-1" source="BN1mwniYuZOqEKGkC-m8-7" target="ztLvwY8hkEMtlcBqOXgu-0">
          <mxGeometry relative="1" as="geometry" />
        </mxCell>
        <mxCell id="BN1mwniYuZOqEKGkC-m8-7" value="ERROR READ" style="rhombus;whiteSpace=wrap;html=1;shadow=0;fontFamily=Helvetica;fontSize=12;align=center;strokeWidth=1;spacing=6;spacingTop=-4;" parent="WIyWlLk6GJQsqaUBKTNV-1" vertex="1">
          <mxGeometry x="450" y="390" width="100" height="80" as="geometry" />
        </mxCell>
        <mxCell id="3xlRdQNsC2Ql51lfbHs1-1" style="edgeStyle=orthogonalEdgeStyle;rounded=0;orthogonalLoop=1;jettySize=auto;html=1;entryX=0.5;entryY=0;entryDx=0;entryDy=0;" parent="WIyWlLk6GJQsqaUBKTNV-1" source="BN1mwniYuZOqEKGkC-m8-13" target="3xlRdQNsC2Ql51lfbHs1-0" edge="1">
          <mxGeometry relative="1" as="geometry" />
        </mxCell>
        <mxCell id="BN1mwniYuZOqEKGkC-m8-13" value="AIR GATE FEED BACK" style="rounded=1;whiteSpace=wrap;html=1;" parent="WIyWlLk6GJQsqaUBKTNV-1" vertex="1">
          <mxGeometry x="-150" y="555" width="90" height="35" as="geometry" />
        </mxCell>
        <mxCell id="BN1mwniYuZOqEKGkC-m8-25" style="edgeStyle=orthogonalEdgeStyle;rounded=0;orthogonalLoop=1;jettySize=auto;html=1;entryX=0.5;entryY=0;entryDx=0;entryDy=0;" parent="WIyWlLk6GJQsqaUBKTNV-1" source="BN1mwniYuZOqEKGkC-m8-14" target="BN1mwniYuZOqEKGkC-m8-23" edge="1">
          <mxGeometry relative="1" as="geometry" />
        </mxCell>
        <mxCell id="BN1mwniYuZOqEKGkC-m8-14" value="POD IN" style="rounded=1;whiteSpace=wrap;html=1;arcSize=17;" parent="WIyWlLk6GJQsqaUBKTNV-1" vertex="1">
          <mxGeometry x="-40" y="555" width="90" height="35" as="geometry" />
        </mxCell>
        <mxCell id="BN1mwniYuZOqEKGkC-m8-26" style="edgeStyle=orthogonalEdgeStyle;rounded=0;orthogonalLoop=1;jettySize=auto;html=1;entryX=0.5;entryY=0;entryDx=0;entryDy=0;" parent="WIyWlLk6GJQsqaUBKTNV-1" source="BN1mwniYuZOqEKGkC-m8-15" target="BN1mwniYuZOqEKGkC-m8-24" edge="1">
          <mxGeometry relative="1" as="geometry" />
        </mxCell>
        <mxCell id="BN1mwniYuZOqEKGkC-m8-15" value="POD OUT" style="rounded=1;whiteSpace=wrap;html=1;arcSize=17;" parent="WIyWlLk6GJQsqaUBKTNV-1" vertex="1">
          <mxGeometry x="70" y="555" width="90" height="35" as="geometry" />
        </mxCell>
        <mxCell id="BN1mwniYuZOqEKGkC-m8-32" style="edgeStyle=orthogonalEdgeStyle;rounded=0;orthogonalLoop=1;jettySize=auto;html=1;entryX=0.5;entryY=0;entryDx=0;entryDy=0;" parent="WIyWlLk6GJQsqaUBKTNV-1" source="BN1mwniYuZOqEKGkC-m8-19" target="BN1mwniYuZOqEKGkC-m8-31" edge="1">
          <mxGeometry relative="1" as="geometry" />
        </mxCell>
        <mxCell id="BN1mwniYuZOqEKGkC-m8-19" value="CHARGE" style="rounded=1;whiteSpace=wrap;html=1;arcSize=17;" parent="WIyWlLk6GJQsqaUBKTNV-1" vertex="1">
          <mxGeometry x="175" y="555" width="90" height="35" as="geometry" />
        </mxCell>
        <mxCell id="BN1mwniYuZOqEKGkC-m8-22" value="State Idle" style="rounded=1;whiteSpace=wrap;html=1;arcSize=17;" parent="WIyWlLk6GJQsqaUBKTNV-1" vertex="1">
          <mxGeometry x="175.5" y="810" width="90" height="35" as="geometry" />
        </mxCell>
        <mxCell id="BN1mwniYuZOqEKGkC-m8-30" style="edgeStyle=orthogonalEdgeStyle;rounded=0;orthogonalLoop=1;jettySize=auto;html=1;" parent="WIyWlLk6GJQsqaUBKTNV-1" source="BN1mwniYuZOqEKGkC-m8-23" target="BN1mwniYuZOqEKGkC-m8-27" edge="1">
          <mxGeometry relative="1" as="geometry" />
        </mxCell>
        <mxCell id="BN1mwniYuZOqEKGkC-m8-23" value="LED BLINK" style="rounded=1;whiteSpace=wrap;html=1;" parent="WIyWlLk6GJQsqaUBKTNV-1" vertex="1">
          <mxGeometry x="-37.5" y="640" width="85" height="40" as="geometry" />
        </mxCell>
        <mxCell id="BN1mwniYuZOqEKGkC-m8-29" style="edgeStyle=orthogonalEdgeStyle;rounded=0;orthogonalLoop=1;jettySize=auto;html=1;" parent="WIyWlLk6GJQsqaUBKTNV-1" source="BN1mwniYuZOqEKGkC-m8-24" target="BN1mwniYuZOqEKGkC-m8-28" edge="1">
          <mxGeometry relative="1" as="geometry" />
        </mxCell>
        <mxCell id="BN1mwniYuZOqEKGkC-m8-24" value="LED BLINK" style="rounded=1;whiteSpace=wrap;html=1;" parent="WIyWlLk6GJQsqaUBKTNV-1" vertex="1">
          <mxGeometry x="72.5" y="640" width="85" height="40" as="geometry" />
        </mxCell>
        <mxCell id="ztLvwY8hkEMtlcBqOXgu-11" style="edgeStyle=orthogonalEdgeStyle;rounded=0;orthogonalLoop=1;jettySize=auto;html=1;" edge="1" parent="WIyWlLk6GJQsqaUBKTNV-1" source="BN1mwniYuZOqEKGkC-m8-27">
          <mxGeometry relative="1" as="geometry">
            <mxPoint x="4.999999999999773" y="830" as="targetPoint" />
          </mxGeometry>
        </mxCell>
        <mxCell id="BN1mwniYuZOqEKGkC-m8-27" value="STATE POD READ" style="rounded=1;whiteSpace=wrap;html=1;" parent="WIyWlLk6GJQsqaUBKTNV-1" vertex="1">
          <mxGeometry x="-37.5" y="720" width="85" height="40" as="geometry" />
        </mxCell>
        <mxCell id="ztLvwY8hkEMtlcBqOXgu-10" style="edgeStyle=orthogonalEdgeStyle;rounded=0;orthogonalLoop=1;jettySize=auto;html=1;" edge="1" parent="WIyWlLk6GJQsqaUBKTNV-1" source="BN1mwniYuZOqEKGkC-m8-28">
          <mxGeometry relative="1" as="geometry">
            <mxPoint x="114.49999999999977" y="830" as="targetPoint" />
          </mxGeometry>
        </mxCell>
        <mxCell id="BN1mwniYuZOqEKGkC-m8-28" value="STATE POD RELEASE" style="rounded=1;whiteSpace=wrap;html=1;" parent="WIyWlLk6GJQsqaUBKTNV-1" vertex="1">
          <mxGeometry x="72" y="720" width="85" height="40" as="geometry" />
        </mxCell>
        <mxCell id="ztLvwY8hkEMtlcBqOXgu-5" style="edgeStyle=orthogonalEdgeStyle;rounded=0;orthogonalLoop=1;jettySize=auto;html=1;entryX=0.5;entryY=0;entryDx=0;entryDy=0;" edge="1" parent="WIyWlLk6GJQsqaUBKTNV-1" source="BN1mwniYuZOqEKGkC-m8-31" target="BN1mwniYuZOqEKGkC-m8-22">
          <mxGeometry relative="1" as="geometry" />
        </mxCell>
        <mxCell id="BN1mwniYuZOqEKGkC-m8-31" value="STATE CHARGE" style="rounded=1;whiteSpace=wrap;html=1;arcSize=17;" parent="WIyWlLk6GJQsqaUBKTNV-1" vertex="1">
          <mxGeometry x="175" y="640" width="90" height="35" as="geometry" />
        </mxCell>
        <mxCell id="ztLvwY8hkEMtlcBqOXgu-9" style="edgeStyle=orthogonalEdgeStyle;rounded=0;orthogonalLoop=1;jettySize=auto;html=1;entryX=0;entryY=0.5;entryDx=0;entryDy=0;" edge="1" parent="WIyWlLk6GJQsqaUBKTNV-1" source="3xlRdQNsC2Ql51lfbHs1-0" target="BN1mwniYuZOqEKGkC-m8-22">
          <mxGeometry relative="1" as="geometry">
            <Array as="points">
              <mxPoint x="-105" y="828" />
            </Array>
          </mxGeometry>
        </mxCell>
        <mxCell id="3xlRdQNsC2Ql51lfbHs1-0" value="PUFF" style="rounded=1;whiteSpace=wrap;html=1;" parent="WIyWlLk6GJQsqaUBKTNV-1" vertex="1">
          <mxGeometry x="-150" y="640" width="90" height="40" as="geometry" />
        </mxCell>
        <mxCell id="ztLvwY8hkEMtlcBqOXgu-4" style="edgeStyle=orthogonalEdgeStyle;rounded=0;orthogonalLoop=1;jettySize=auto;html=1;entryX=0.5;entryY=0;entryDx=0;entryDy=0;" edge="1" parent="WIyWlLk6GJQsqaUBKTNV-1" source="ztLvwY8hkEMtlcBqOXgu-0" target="ztLvwY8hkEMtlcBqOXgu-1">
          <mxGeometry relative="1" as="geometry" />
        </mxCell>
        <mxCell id="ztLvwY8hkEMtlcBqOXgu-0" value="ERROR TYPE" style="rounded=1;whiteSpace=wrap;html=1;arcSize=17;" vertex="1" parent="WIyWlLk6GJQsqaUBKTNV-1">
          <mxGeometry x="455.5" y="550" width="90" height="35" as="geometry" />
        </mxCell>
        <mxCell id="ztLvwY8hkEMtlcBqOXgu-6" style="edgeStyle=orthogonalEdgeStyle;rounded=0;orthogonalLoop=1;jettySize=auto;html=1;entryX=1;entryY=0.5;entryDx=0;entryDy=0;" edge="1" parent="WIyWlLk6GJQsqaUBKTNV-1" source="ztLvwY8hkEMtlcBqOXgu-1" target="BN1mwniYuZOqEKGkC-m8-22">
          <mxGeometry relative="1" as="geometry">
            <Array as="points">
              <mxPoint x="500" y="828" />
            </Array>
          </mxGeometry>
        </mxCell>
        <mxCell id="ztLvwY8hkEMtlcBqOXgu-1" value="LED BLINK" style="rounded=1;whiteSpace=wrap;html=1;" vertex="1" parent="WIyWlLk6GJQsqaUBKTNV-1">
          <mxGeometry x="452.75" y="635" width="94.5" height="40" as="geometry" />
        </mxCell>
      </root>
    </mxGraphModel>
  </diagram>
</mxfile>
